<svg aria-hidden="true" style="width:0;height:0;position:absolute;overflow:hidden" xmlns="http://www.w3.org/2000/svg"><defs><symbol id="icon-close" fill="none" xmlns="http://www.w3.org/2000/svg" viewBox="0 0 30 30"><path d="m8 8 14 14M8 22 22 8" stroke-width="2"/></symbol><symbol id="icon-heart" viewBox="0 0 32 32"><path fill="#b92f2c" style="fill:var(--color1,#b92f2c)" d="m16 30.583-2.24-2.24C5.44 20.983 0 16.023 0 9.943c0-4.96 3.84-8.8 8.8-8.8 2.72 0 5.44 1.28 7.2 3.36 1.76-2.08 4.48-3.36 7.2-3.36 4.96 0 8.8 3.84 8.8 8.8 0 6.08-5.44 11.04-13.76 18.4L16 30.583z"/></symbol><symbol id="icon-arrow-left" fill="none" xmlns="http://www.w3.org/2000/svg" viewBox="0 0 16 16"><path d="M12.667 8H3.333M8 12.667 3.333 8 8 3.333" stroke="#000" stroke-width="1.333" stroke-linecap="round" stroke-linejoin="round"/></symbol><symbol id="icon-arrow-right" fill="none" xmlns="http://www.w3.org/2000/svg" viewBox="0 0 16 16"><path d="M3.333 8h9.334M8 12.667 12.667 8 8 3.333" stroke="#000" stroke-width="1.333" stroke-linecap="round" stroke-linejoin="round"/></symbol><symbol id="icon-logo" viewBox="0 0 32 32"><path fill="none" stroke="#fff" style="stroke:var(--color2,#fff)" stroke-linejoin="round" stroke-linecap="round" stroke-width="2.17" d="M26.427 2.667H5.574a2.907 2.907 0 0 0-2.907 2.907v20.853a2.907 2.907 0 0 0 2.907 2.907h20.853a2.907 2.907 0 0 0 2.907-2.907V5.574a2.907 2.907 0 0 0-2.907-2.907zM9.333 2.667v26.667M22.667 2.667v26.667M2.667 16h26.667M2.667 9.333h6.667M2.667 22.667h6.667M22.667 22.667h6.667M22.667 9.333h6.667"/></symbol><symbol id="icon-search" fill="none" xmlns="http://www.w3.org/2000/svg" viewBox="0 0 16 16"><path d="M7.333 12.667A5.333 5.333 0 1 0 7.333 2a5.333 5.333 0 0 0 0 10.667ZM14 14l-2.9-2.9" stroke-linecap="round" stroke-linejoin="round"/></symbol></defs></svg>